# xmcd
# 
# Track frame offsets:
#     150
#     18362
#     30572
#     45565
#     59767
#     73942
#     90345
#     105602
#     120862
#     138182
#     149995
#     163945
#     188370
#     224577
#     239735
#     266062
#     311497
#     324695
# 
# Disc length: 4511
# 
# Revision: 0
# Processed by: cddbd v1.5.2PL0 Copyright (c) Steve Scherf et al.
# Submitted via: fre:ac v1.0.17
# 
DISCID=0f119d12
DTITLE=Various Artist - Blues Giants
DYEAR=1993
DGENRE=Blues
TTITLE0=Tommy Tucker - Hi Heel Sneakers
TTITLE1=Ike Turner - Prancin'
TTITLE2=Louisiana Red - Alabama Train
TTITLE3=Buddy Guy - Sit and Cry
TTITLE4=John Lee Hooker - Stomp Boogie
TTITLE5=Little Walter - Juke
TTITLE6=Louisiana Red - Whose Ol' Funky Drawers Is These?
TTITLE7=Buddy Guy - Hoodoo Man
TTITLE8=Jimmy Reed - Cry Before I Go
TTITLE9=Buddy Guy - Try To Quit You Baby
TTITLE10=Lightin' Hopkins - War Is Starting Again
TTITLE11=Little Walter - Sad Hours
TTITLE12=Albert Collins - How Blue Can You Feel
TTITLE13=Louisiana Red - You're Gonna Need Me Baby
TTITLE14=Earl Hooker - Two Bugs In A Rug
TTITLE15=Buddy Guy - Ten Years Ago
TTITLE16=John Lee Hooker - No Friend Around
TTITLE17=Junior Wells - Junior's Wail
EXTD=
EXTT0=
EXTT1=
EXTT2=
EXTT3=
EXTT4=
EXTT5=
EXTT6=
EXTT7=with Junior Wells
EXTT8=
EXTT9=
EXTT10=
EXTT11=
EXTT12=
EXTT13=
EXTT14=
EXTT15=with Junior Wells
EXTT16=
EXTT17=
PLAYORDER=
